<?xml version="1.0" standalone="no"?><!DOCTYPE svg PUBLIC "-//W3C//DTD SVG 1.1//EN" "http://www.w3.org/Graphics/SVG/1.1/DTD/svg11.dtd"><svg t="1750150920186" class="icon" viewBox="0 0 1024 1024" version="1.1" xmlns="http://www.w3.org/2000/svg" p-id="2031" xmlns:xlink="http://www.w3.org/1999/xlink" width="200" height="200"><path d="M844.89 326.58c7.87 26.55 12.05 54.3 12.05 82.87 0 190.51-185.74 344.95-414.87 344.95-47.89 0-93.89-6.76-136.69-19.18l65.06-40.06c21.72 3.55 44.05 5.63 66.97 5.63C638.22 700.79 801 558.34 801 382.65c0-175.71-162.79-318.14-363.59-318.14S73.82 206.94 73.82 382.64c0 101.79 54.84 192.18 139.84 250.43v158.62l81.94-50.45c66.33 77.33 171.97 127.36 290.97 127.36 22.92 0 45.25-2.08 66.97-5.64l156.78 96.53v-158.6c85-58.26 139.84-148.64 139.84-250.44 0.02-87.3-40.19-166.38-105.27-223.87z m-225.68 17.61c23.18 0 41.95 18.79 41.95 41.94 0 23.17-18.78 41.96-41.95 41.96s-41.95-18.79-41.95-41.96c0-23.15 18.78-41.94 41.95-41.94z m-167.81 0c23.18 0 41.95 18.79 41.95 41.94 0 23.17-18.78 41.96-41.95 41.96s-41.95-18.79-41.95-41.96c0-23.15 18.78-41.94 41.95-41.94z m-209.76 41.94c0-23.15 18.78-41.94 41.95-41.94s41.95 18.79 41.95 41.94c0 23.17-18.78 41.96-41.95 41.96-23.18 0-41.95-18.79-41.95-41.96z" p-id="2032"></path></svg>