<?xml version="1.0" standalone="no"?><!DOCTYPE svg PUBLIC "-//W3C//DTD SVG 1.1//EN" "http://www.w3.org/Graphics/SVG/1.1/DTD/svg11.dtd"><svg t="1750150450839" class="icon" viewBox="0 0 1024 1024" version="1.1" xmlns="http://www.w3.org/2000/svg" p-id="1230" xmlns:xlink="http://www.w3.org/1999/xlink" width="200" height="200"><path d="M918.983111 495.160889a57.287111 57.287111 0 0 0-16.042667-67.470222l-247.466666-211.854223-15.018667-13.084444C603.989333 170.609778 562.403556 134.030222 512 134.030222c-50.346667 0-91.875556 36.579556-128.398222 68.835556l-14.961778 13.027555-247.466667 211.854223c-20.024889 16.611556-26.510222 43.975111-16.099555 67.470222 7.509333 16.952889 22.812444 30.151111 42.325333 34.986666 8.760889 2.218667 13.141333 3.299556 14.904889 5.575112 1.763556 2.161778 1.763556 5.745778 1.820444 12.913777l0.398223 118.101334c0 55.580444 0 100.693333 5.290666 136.248889 5.575111 37.205333 17.408 68.380444 44.544 92.842666 26.737778 24.177778 60.188444 34.531556 100.124445 39.367111 38.798222 4.721778 88.291556 4.721778 150.300444 4.721778H559.217778c62.008889 0 111.502222 0 150.243555-4.721778 39.936-4.835556 73.386667-15.189333 100.124445-39.367111 27.136-24.462222 39.025778-55.637333 44.600889-92.842666 5.290667-35.612444 5.290667-80.668444 5.290666-136.248889l0.398223-118.101334c0-7.168 0-10.752 1.820444-12.970666 1.763556-2.275556 6.144-3.299556 14.904889-5.518223 18.887111-4.608 34.531556-17.521778 42.325333-34.986666zM512 650.581333h0.341333c29.184 0 52.849778 23.153778 52.849778 51.712a52.280889 52.280889 0 0 1-52.849778 51.655111h-0.341333a52.280889 52.280889 0 0 1-52.849778-51.655111c0-28.558222 23.665778-51.712 52.849778-51.712z" fill="#1F2037" p-id="1231"></path></svg>