<?xml version="1.0" standalone="no"?><!DOCTYPE svg PUBLIC "-//W3C//DTD SVG 1.1//EN" "http://www.w3.org/Graphics/SVG/1.1/DTD/svg11.dtd"><svg t="1750151079338" class="icon" viewBox="0 0 1024 1024" version="1.1" xmlns="http://www.w3.org/2000/svg" p-id="1713" xmlns:xlink="http://www.w3.org/1999/xlink" width="200" height="200"><path d="M946.801778 653.596444l-81.294222-43.463111a10.524444 10.524444 0 0 0-5.063112-1.251555h-1.137777a10.581333 10.581333 0 0 0-5.290667 1.479111l-56.149333 33.223111a14.904889 14.904889 0 0 0-1.820445 1.194667 6.144 6.144 0 0 0-2.56 5.176889c0 1.024 0.113778 1.991111 0.341334 2.901333v0.113778c0.910222 2.787556 2.844444 5.12 5.290666 6.371555l36.579556 19.797334a11.377778 11.377778 0 0 1 5.859555 9.898666 11.377778 11.377778 0 0 1-5.688889 10.069334l-318.919111 181.475555a10.524444 10.524444 0 0 1-10.24 0.170667l-318.748444-172.373334a11.377778 11.377778 0 0 1-5.859556-9.841777 11.434667 11.434667 0 0 1 5.461334-10.069334l40.049777-23.893333 2.104889-1.308444c4.152889-2.616889 3.697778-6.371556 3.640889-6.826667 0-0.455111-0.227556-4.835556-3.527111-6.997333l-1.194667-0.739556-56.547555-32.199111a10.524444 10.524444 0 0 0-5.347556-1.422222H165.546667c-1.706667 0-3.413333 0.455111-4.892445 1.251555l-84.024889 45.056A39.708444 39.708444 0 0 0 56.888889 696.32c0.113778 14.563556 7.964444 27.875556 20.309333 34.588444l418.702222 232.732445a29.013333 29.013333 0 0 0 16.384 3.356444h0.682667c6.257778-0.056889 12.401778-0.170667 15.815111-3.128889a12.231111 12.231111 0 0 1 1.877334-1.308444l416.768-239.388444a38.456889 38.456889 0 0 0 19.683555-33.564445c0-0.910222-0.113778-0.455111-0.056889-1.422222a37.603556 37.603556 0 0 0-20.252444-34.588445z m0-188.643555l-81.294222-43.463111a10.524444 10.524444 0 0 0-5.063112-1.251556h-1.137777a10.524444 10.524444 0 0 0-5.290667 1.479111l-56.149333 33.223111a14.165333 14.165333 0 0 0-1.820445 1.194667 6.144 6.144 0 0 0-2.56 5.176889c0 1.024 0.113778 1.991111 0.341334 2.901333v0.113778a10.808889 10.808889 0 0 0 5.290666 6.371556l36.579556 19.797333a11.377778 11.377778 0 0 1 5.859555 9.898667 11.377778 11.377778 0 0 1-5.688889 10.069333l-318.919111 181.475556a10.467556 10.467556 0 0 1-10.24 0.170666l-318.748444-172.373333a11.377778 11.377778 0 0 1-5.859556-9.841778 11.377778 11.377778 0 0 1 5.461334-10.012444L227.555556 475.875556l2.104888-1.251556c4.152889-2.616889 3.697778-6.371556 3.640889-6.826667 0-0.455111-0.227556-4.835556-3.527111-6.997333l-1.194666-0.682667-56.547556-32.256a10.524444 10.524444 0 0 0-5.347556-1.422222H165.546667c-1.706667 0-3.413333 0.455111-4.892445 1.308445l-84.024889 44.942222A39.708444 39.708444 0 0 0 56.888889 507.733333c0.113778 14.563556 7.964444 27.875556 20.309333 34.645334l418.702222 232.675555a29.013333 29.013333 0 0 0 16.384 3.413334h0.682667c6.257778-0.113778 12.401778-0.227556 15.815111-3.128889a11.889778 11.889778 0 0 1 1.877334-1.365334l416.768-239.445333A38.456889 38.456889 0 0 0 967.111111 500.963556c0-0.910222-0.113778-0.512-0.056889-1.479112a37.660444 37.660444 0 0 0-20.252444-34.531555zM74.353778 350.72l416.768 236.487111c5.12 2.787556 10.922667 3.982222 16.668444 3.413333 6.656 0 13.368889 0 16.668445-3.413333l420.124444-236.487111a39.708444 39.708444 0 0 0 20.024889-34.759111 39.708444 39.708444 0 0 0-20.024889-34.759111L531.171556 62.122667a29.240889 29.240889 0 0 0-33.336889 0l-420.124445 219.022222a38.456889 38.456889 0 0 0-20.024889 34.816c-3.356444 13.880889 6.656 27.761778 16.611556 34.702222v0.056889z" fill="#1F2037" p-id="1714"></path></svg>